<svg xmlns="http://www.w3.org/2000/svg"  viewBox="0 0 72 72" width="128px" height="128px"><path d="M57 54.981H29c-1.657 0-3-1.343-3-3s1.343-3 3-3h28c1.657 0 3 1.343 3 3S58.657 54.981 57 54.981zM20.043 51.981c0 2.209-1.791 4-4 4s-4-1.791-4-4 1.791-4 4-4S20.043 49.772 20.043 51.981zM57 39H29c-1.657 0-3-1.343-3-3s1.343-3 3-3h28c1.657 0 3 1.343 3 3S58.657 39 57 39zM20.043 36c0 2.209-1.791 4-4 4s-4-1.791-4-4 1.791-4 4-4S20.043 33.791 20.043 36zM57 23H29c-1.657 0-3-1.343-3-3s1.343-3 3-3h28c1.657 0 3 1.343 3 3S58.657 23 57 23zM20.043 20c0 2.209-1.791 4-4 4s-4-1.791-4-4 1.791-4 4-4S20.043 17.791 20.043 20z"/></svg>