<svg xmlns="http://www.w3.org/2000/svg"  viewBox="0 0 72 72" width="128px" height="128px"><path d="M57 54.981H29c-1.657 0-3-1.343-3-3s1.343-3 3-3h28c1.657 0 3 1.343 3 3S58.657 54.981 57 54.981zM18.219 51.865c1.504.157 2.434.984 2.434 2.297 0 1.887-1.619 3.083-4.258 3.083-2.297 0-3.757-1.197-3.94-2.275-.162-.955.453-1.43 1.233-1.43.539 0 .895.178 1.182.595.369.54.732.861 1.594.861.725 0 1.244-.438 1.244-1.046 0-.704-.541-1.08-1.545-1.08h-.068c-.678 0-1.02-.376-1.02-.957 0-.554.342-.95 1.02-.95h.068c.895 0 1.414-.39 1.414-1.025 0-.608-.451-.991-1.182-.991-.588 0-1.006.239-1.285.731-.328.581-.684.793-1.313.793-.793 0-1.31-.548-1.161-1.372.218-1.197 1.625-2.265 3.745-2.265 2.193 0 3.861.93 3.861 2.687 0 1.278-.936 2.071-2.023 2.29V51.865zM57 39H29c-1.657 0-3-1.343-3-3s1.343-3 3-3h28c1.657 0 3 1.343 3 3S58.657 39 57 39zM19.225 38.813c.725 0 1.135.431 1.135 1.094 0 .649-.41 1.094-1.135 1.094h-5.482c-.943 0-1.354-.526-1.354-1.251 0-.533.246-.943.793-1.401l2.713-2.324c1.107-.95 1.422-1.381 1.422-1.969 0-.622-.479-1.053-1.182-1.053-.52 0-.875.239-1.244.772-.383.561-.732.766-1.285.766-.738 0-1.399-.533-1.156-1.466.379-1.451 2.003-2.212 3.726-2.212 2.398 0 3.93 1.21 3.93 3.001 0 1.326-.684 2.017-2.215 3.343l-1.797 1.552v.055H19.225zM57 23H29c-1.657 0-3-1.343-3-3s1.343-3 3-3h28c1.657 0 3 1.343 3 3S58.657 23 57 23zM16.051 23.771v-6.125h-.055l-1.045.725c-.246.171-.404.226-.678.226-.539 0-.957-.403-.957-.978 0-.403.164-.731.547-.991l1.791-1.196c.574-.383 1.074-.438 1.635-.438 1.045 0 1.66.629 1.66 1.62v7.157c0 .868-.58 1.429-1.449 1.429C16.633 25.199 16.051 24.639 16.051 23.771z"/></svg>