<svg xmlns="http://www.w3.org/2000/svg"  viewBox="0 0 30 30" width="90px" height="90px"><path d="M 9.0292969 6 A 1.0001 1.0001 0 0 0 8.0566406 6.6660156 L 2.6152344 22 L 2 22 A 1.0001 1.0001 0 1 0 2 24 L 5 24 A 1.0001 1.0001 0 1 0 5 22 L 4.7402344 22 L 5.8046875 19 L 12.195312 19 L 13.259766 22 L 13 22 A 1.0001 1.0001 0 1 0 13 24 L 16 24 A 1.0001 1.0001 0 1 0 16 22 L 15.384766 22 L 9.9433594 6.6660156 A 1.0001 1.0001 0 0 0 9.0292969 6 z M 9 9.9921875 L 11.486328 17 L 6.5136719 17 L 9 9.9921875 z M 23 12 A 1.0001 1.0001 0 0 0 22.585938 12.095703 C 20.775658 12.258782 19.402344 13.197266 19.402344 13.197266 A 1.000787 1.000787 0 1 0 20.597656 14.802734 C 20.597656 14.802737 21.745334 14 23 14 C 24.057604 14 24.895645 14.79562 24.982422 15.828125 C 24.924269 15.861291 24.836068 15.912636 24.628906 15.972656 C 24.095757 16.127117 23.217007 16.25137 22.292969 16.447266 C 21.368931 16.643162 20.373743 16.90547 19.515625 17.513672 C 18.657507 18.121873 18 19.187553 18 20.5 C 18 21.520213 18.535176 22.461688 19.353516 23.070312 C 20.171855 23.678938 21.258211 24 22.5 24 C 24.017898 24 25.083673 23.559531 25.789062 23.003906 C 26.339678 23.610243 27.12513 24 28 24 A 1.0001 1.0001 0 1 0 28 22 C 27.43497 22 27 21.56503 27 21 A 1.0005565 1.0005565 0 0 0 27 20.957031 L 27 16 A 1.0001 1.0001 0 0 0 26.978516 15.78125 C 26.861512 13.686272 25.122516 12 23 12 z M 25 17.933594 L 25 20.880859 C 24.993077 20.92361 24.962303 21.057285 24.720703 21.310547 C 24.435473 21.60953 23.88262 22 22.5 22 C 21.607789 22 20.945036 21.760969 20.546875 21.464844 C 20.148714 21.168719 20 20.860787 20 20.5 C 20 19.754447 20.217493 19.468533 20.671875 19.146484 C 21.126257 18.824436 21.881069 18.577448 22.707031 18.402344 C 23.470889 18.240406 24.267185 18.127103 25 17.933594 z"/></svg>