<svg xmlns="http://www.w3.org/2000/svg"  viewBox="0 0 48 48" width="96px" height="96px"><path fill="#60A5FA" d="M 19 8 C 17.35503 8 16 9.3550302 16 11 L 16 37 L 2 37 L 2 20 C 2 19.43497 2.4349698 19 3 19 L 13 19 A 1.0001 1.0001 0 1 0 13 17 L 3 17 C 1.3550302 17 0 18.35503 0 20 L 0 38 A 1.0001 1.0001 0 0 0 1 39 L 16.832031 39 A 1.0001 1.0001 0 0 0 17.158203 39 L 30.832031 39 A 1.0001 1.0001 0 0 0 31.158203 39 L 47 39 A 1.0001 1.0001 0 0 0 48 38 L 48 25 C 48 23.35503 46.64497 22 45 22 L 35 22 A 1.0001 1.0001 0 1 0 35 24 L 45 24 C 45.56503 24 46 24.43497 46 25 L 46 37 L 32 37 L 32 11 C 32 9.3550302 30.64497 8 29 8 L 19 8 z M 19 10 L 29 10 C 29.56503 10 30 10.43497 30 11 L 30 37 L 18 37 L 18 11 C 18 10.43497 18.43497 10 19 10 z M 24.882812 12.070312 C 24.514812 12.070313 24.227547 12.125156 23.810547 12.410156 L 22.109375 13.589844 C 21.828375 13.785844 21.722656 13.988719 21.722656 14.261719 C 21.722656 14.642719 21.991516 14.904297 22.353516 14.904297 C 22.538516 14.904297 22.663078 14.863141 22.830078 14.744141 L 24.085938 13.869141 L 24.121094 13.869141 L 24.121094 20.015625 C 24.121094 20.556625 24.484672 20.913109 25.013672 20.912109 C 25.544672 20.912109 25.900391 20.556625 25.900391 20.015625 L 25.900391 13.076172 C 25.900391 12.458172 25.519813 12.070312 24.882812 12.070312 z M 8.6054688 21.011719 C 6.9804688 21.011719 5.9023281 21.897609 5.6113281 22.849609 C 5.5693281 22.974609 5.546875 23.099328 5.546875 23.236328 C 5.546875 23.682328 5.8324531 23.96875 6.3144531 23.96875 C 6.7014531 23.96875 6.9102812 23.802312 7.1132812 23.445312 C 7.4222813 22.755312 7.8998438 22.410156 8.5898438 22.410156 C 9.3568437 22.410156 9.9023438 22.915047 9.9023438 23.623047 C 9.9023437 24.242047 9.6303125 24.659734 8.5703125 25.677734 L 6.0117188 28.123047 C 5.6487188 28.456047 5.5175781 28.682484 5.5175781 29.021484 C 5.5175781 29.474484 5.7963281 29.789063 6.3613281 29.789062 L 11.117188 29.789062 C 11.581188 29.789063 11.859375 29.496219 11.859375 29.074219 C 11.859375 28.639219 11.581188 28.361328 11.117188 28.361328 L 7.8808594 28.361328 L 7.8808594 28.324219 L 9.7363281 26.539062 C 11.140328 25.212063 11.652344 24.557766 11.652344 23.509766 C 11.652344 22.033766 10.426469 21.011719 8.6054688 21.011719 z M 39.34375 26.011719 C 37.82575 26.011719 36.84975 26.713734 36.46875 27.552734 C 36.37975 27.754734 36.337891 27.928859 36.337891 28.130859 C 36.337891 28.565859 36.59375 28.857422 37.09375 28.857422 C 37.49975 28.857422 37.706344 28.706734 37.902344 28.302734 C 38.181344 27.695734 38.622609 27.392578 39.349609 27.392578 C 40.217609 27.392578 40.681641 27.851016 40.681641 28.541016 C 40.681641 29.243016 40.098219 29.730469 39.199219 29.730469 L 38.849609 29.730469 C 38.414609 29.730469 38.164062 29.992188 38.164062 30.367188 C 38.164062 30.754188 38.414609 31.009766 38.849609 31.009766 L 39.224609 31.009766 C 40.265609 31.009766 40.877094 31.475594 40.871094 32.308594 C 40.871094 33.022594 40.265766 33.533203 39.384766 33.533203 C 38.492766 33.533203 38.028609 33.178172 37.724609 32.576172 C 37.545609 32.249172 37.319891 32.105469 36.962891 32.105469 C 36.468891 32.105469 36.171875 32.396328 36.171875 32.861328 C 36.171875 33.038328 36.212594 33.230734 36.308594 33.427734 C 36.712594 34.271734 37.717516 34.979469 39.353516 34.980469 C 41.346516 34.980469 42.697266 33.944766 42.697266 32.384766 C 42.697266 31.199766 41.870797 30.451031 40.591797 30.332031 L 40.591797 30.296875 C 41.603797 30.088875 42.384766 29.374156 42.384766 28.285156 C 42.384766 26.910156 41.15775 26.011719 39.34375 26.011719 z"/></svg>