<svg xmlns="http://www.w3.org/2000/svg"  viewBox="0 0 128 128" width="128px" height="128px"><path d="M 39 1 C 37.34 1 36 2.34 36 4 L 36 17.210938 C 24.6 17.700937 17.6 19.230312 13 23.820312 C 5.96 30.860312 5.97 43.829453 6 69.689453 L 6 74.480469 L 6 78.820312 C 5.98 102.01031 5.9698438 113.64953 12.589844 120.26953 C 18.879844 126.55953 30.149922 127.01953 51.669922 127.01953 C 53.459922 127.01953 55.310234 127.01977 57.240234 127.00977 L 61.839844 127 C 63.499844 127 64.839844 125.65 64.839844 124 C 64.839844 122.34 63.499844 121 61.839844 121 L 57.230469 121.00977 C 33.690469 121.04977 21.870312 121.06953 16.820312 116.01953 C 11.960313 111.15953 11.970234 99.670313 11.990234 78.820312 L 11.990234 74.480469 L 11.990234 69.689453 C 11.990234 58.299453 11.979531 49.59 12.519531 43 L 115.46094 43 C 115.80094 47.06 115.93047 51.940313 115.98047 57.820312 C 115.99047 59.470312 117.33047 60.800781 118.98047 60.800781 L 119 60.800781 C 120.66 60.790781 121.99047 59.429297 121.98047 57.779297 C 121.84047 39.589297 121.16914 28.120469 113.11914 22.230469 C 108.53914 18.870469 101.91 17.650703 92 17.220703 L 92 4 C 92 2.34 90.66 1 89 1 C 87.34 1 86 2.34 86 4 L 86 17.039062 C 81.61 16.969062 76.680859 16.980234 71.130859 16.990234 C 68.860859 17.000234 66.49 17 64 17 C 61.51 17 59.139141 17.000234 56.869141 16.990234 C 51.309141 16.980234 46.38 16.969063 42 17.039062 L 42 4 C 42 2.34 40.66 1 39 1 z M 48.990234 22.982422 C 51.461523 22.977695 54.081875 22.983984 56.859375 22.990234 C 59.129375 23.000234 61.51 23 64 23 C 66.49 23 68.870625 23.000234 71.140625 22.990234 C 92.270625 22.950234 103.92008 22.920547 109.58008 27.060547 C 112.21008 28.990547 113.76945 32.12 114.68945 37 L 13.289062 37 C 14.059062 32.91 15.290234 30.020312 17.240234 28.070312 C 21.755234 23.564063 31.691211 23.015508 48.990234 22.982422 z M 94 61 C 75.8 61 61 75.8 61 94 C 61 112.2 75.8 127 94 127 C 112.2 127 127 112.2 127 94 C 127 75.8 112.2 61 94 61 z M 94 67 C 108.89 67 121 79.11 121 94 C 121 108.89 108.89 121 94 121 C 79.11 121 67 108.89 67 94 C 67 79.11 79.11 67 94 67 z M 94 79 C 92.34 79 91 80.34 91 82 L 91 94 C 91 94.8 91.320859 95.559141 91.880859 96.119141 L 100.36914 104.60938 C 100.95914 105.19938 101.72023 105.49023 102.49023 105.49023 C 103.26023 105.49023 104.02938 105.19937 104.60938 104.60938 C 105.77938 103.43937 105.77938 101.53914 104.60938 100.36914 L 97 92.759766 L 97 82 C 97 80.34 95.66 79 94 79 z"/></svg>